<svg xmlns="http://www.w3.org/2000/svg" width="180" height="240" viewBox="0 0 180 240" role="img" aria-labelledby="title">
  <title id="title">Transparent repeating mushroom mycelium channels and soft spotted knots</title>
  <g stroke-linecap="round" stroke-linejoin="round">
    <g id="mushroom-mycelium" fill="none" stroke="#7b9679" stroke-width="4">
      <path d="M35 0Q64 30 35 60Q7 90 35 120Q64 150 35 180Q7 210 35 240M88 0Q111 30 88 60Q64 90 88 120Q111 150 88 180Q64 210 88 240M144 0Q171 30 144 60Q117 90 144 120Q171 150 144 180Q117 210 144 240"/>
      <path d="M35 31 77 42M88 77 136 91M35 151 77 162M88 197 136 211" stroke="#dedbb3" stroke-width="6"/>
      <ellipse cx="57" cy="93" rx="16" ry="11" fill="#efb2b0" stroke="#a8818e" transform="rotate(-20 57 93)"/>
      <ellipse cx="122" cy="28" rx="14" ry="9" fill="#edc9b2" stroke="#a88d84" transform="rotate(15 122 28)"/>
      <ellipse cx="57" cy="213" rx="16" ry="11" fill="#efb2b0" stroke="#a8818e" transform="rotate(-20 57 213)"/>
      <ellipse cx="122" cy="148" rx="14" ry="9" fill="#edc9b2" stroke="#a88d84" transform="rotate(15 122 148)"/>
    </g>
  </g>
</svg>
